<svg width="496" height="1108" viewBox="0 0 372 831" xmlns="http://www.w3.org/2000/svg" xmlns:xlink="http://www.w3.org/1999/xlink">
<g id="graph0" class="graph" transform="translate(46.00386321900268,526.5570019034924) scale(0.27760439136993226)">
<title>G</title>
<polygon fill="transparent" stroke="transparent" points="-4,4 -4,-1804 282,-1804 282,4 -4,4"></polygon>
<!-- migrations -->
<g id="node1" class="node" style="opacity: 1;">
<title>migrations</title>
<polygon fill="#232d95" stroke="transparent" points="33,-54 33,-72 246,-72 246,-54 33,-54"></polygon>
<polygon fill="none" stroke="white" points="33,-54 33,-72 246,-72 246,-54 33,-54"></polygon>
<text text-anchor="start" x="36" y="-61" font-family="opensans" font-weight="bold" font-size="10.00" fill="white">"migrations"</text>
<polygon fill="#404040" stroke="transparent" points="33,-36 33,-54 246,-54 246,-36 33,-36"></polygon>
<polygon fill="none" stroke="white" points="33,-36 33,-54 246,-54 246,-36 33,-36"></polygon>
<text text-anchor="start" x="35.91" y="-42" font-family="opensans" font-size="10.00" fill="white"> &#160;&#160;&#160;&#160;&#160;&#160;&#160;&#160;&#160;id integer primary key autoincrement not null</text>
<polygon fill="#404040" stroke="transparent" points="33,-18 33,-36 246,-36 246,-18 33,-18"></polygon>
<polygon fill="none" stroke="white" points="33,-18 33,-36 246,-36 246,-18 33,-18"></polygon>
<text text-anchor="start" x="36" y="-24" font-family="opensans" font-size="10.00" fill="white"> &#160;&#160;&#160;&#160;&#160;&#160;&#160;&#160;&#160;migration varchar not null</text>
<polygon fill="#404040" stroke="transparent" points="33,0 33,-18 246,-18 246,0 33,0"></polygon>
<polygon fill="none" stroke="white" points="33,0 33,-18 246,-18 246,0 33,0"></polygon>
<text text-anchor="start" x="36" y="-6" font-family="opensans" font-size="10.00" fill="white"> &#160;&#160;&#160;&#160;&#160;&#160;&#160;&#160;&#160;batch integer not null</text>
</g>
<!-- users -->
<g id="node2" class="node" style="opacity: 1;">
<title>users</title>
<polygon fill="#232d95" stroke="transparent" points="33,-504 33,-522 246,-522 246,-504 33,-504"></polygon>
<polygon fill="none" stroke="white" points="33,-504 33,-522 246,-522 246,-504 33,-504"></polygon>
<text text-anchor="start" x="36" y="-511" font-family="opensans" font-weight="bold" font-size="10.00" fill="white">"users"</text>
<polygon fill="#404040" stroke="transparent" points="33,-486 33,-504 246,-504 246,-486 33,-486"></polygon>
<polygon fill="none" stroke="white" points="33,-486 33,-504 246,-504 246,-486 33,-486"></polygon>
<text text-anchor="start" x="35.91" y="-492" font-family="opensans" font-size="10.00" fill="white"> &#160;&#160;&#160;&#160;&#160;&#160;&#160;&#160;&#160;id integer primary key autoincrement not null</text>
<polygon fill="#404040" stroke="transparent" points="33,-468 33,-486 246,-486 246,-468 33,-468"></polygon>
<polygon fill="none" stroke="white" points="33,-468 33,-486 246,-486 246,-468 33,-468"></polygon>
<text text-anchor="start" x="36" y="-474" font-family="opensans" font-size="10.00" fill="white"> &#160;&#160;&#160;&#160;&#160;&#160;&#160;&#160;&#160;name varchar not null</text>
<polygon fill="#404040" stroke="transparent" points="33,-450 33,-468 246,-468 246,-450 33,-450"></polygon>
<polygon fill="none" stroke="white" points="33,-450 33,-468 246,-468 246,-450 33,-450"></polygon>
<text text-anchor="start" x="36" y="-456" font-family="opensans" font-size="10.00" fill="white"> &#160;&#160;&#160;&#160;&#160;&#160;&#160;&#160;&#160;email varchar not null</text>
<polygon fill="#404040" stroke="transparent" points="33,-432 33,-450 246,-450 246,-432 33,-432"></polygon>
<polygon fill="none" stroke="white" points="33,-432 33,-450 246,-450 246,-432 33,-432"></polygon>
<text text-anchor="start" x="36" y="-438" font-family="opensans" font-size="10.00" fill="white"> &#160;&#160;&#160;&#160;&#160;&#160;&#160;&#160;&#160;role integer not null default '1'</text>
<polygon fill="#404040" stroke="transparent" points="33,-414 33,-432 246,-432 246,-414 33,-414"></polygon>
<polygon fill="none" stroke="white" points="33,-414 33,-432 246,-432 246,-414 33,-414"></polygon>
<text text-anchor="start" x="36" y="-420" font-family="opensans" font-size="10.00" fill="white"> &#160;&#160;&#160;&#160;&#160;&#160;&#160;&#160;&#160;first_name varchar</text>
<polygon fill="#404040" stroke="transparent" points="33,-396 33,-414 246,-414 246,-396 33,-396"></polygon>
<polygon fill="none" stroke="white" points="33,-396 33,-414 246,-414 246,-396 33,-396"></polygon>
<text text-anchor="start" x="36" y="-402" font-family="opensans" font-size="10.00" fill="white"> &#160;&#160;&#160;&#160;&#160;&#160;&#160;&#160;&#160;last_name varchar</text>
<polygon fill="#404040" stroke="transparent" points="33,-378 33,-396 246,-396 246,-378 33,-378"></polygon>
<polygon fill="none" stroke="white" points="33,-378 33,-396 246,-396 246,-378 33,-378"></polygon>
<text text-anchor="start" x="36" y="-384" font-family="opensans" font-size="10.00" fill="white"> &#160;&#160;&#160;&#160;&#160;&#160;&#160;&#160;&#160;phone varchar</text>
<polygon fill="#404040" stroke="transparent" points="33,-360 33,-378 246,-378 246,-360 33,-360"></polygon>
<polygon fill="none" stroke="white" points="33,-360 33,-378 246,-378 246,-360 33,-360"></polygon>
<text text-anchor="start" x="36" y="-366" font-family="opensans" font-size="10.00" fill="white"> &#160;&#160;&#160;&#160;&#160;&#160;&#160;&#160;&#160;address text</text>
<polygon fill="#404040" stroke="transparent" points="33,-342 33,-360 246,-360 246,-342 33,-342"></polygon>
<polygon fill="none" stroke="white" points="33,-342 33,-360 246,-360 246,-342 33,-342"></polygon>
<text text-anchor="start" x="36" y="-348" font-family="opensans" font-size="10.00" fill="white"> &#160;&#160;&#160;&#160;&#160;&#160;&#160;&#160;&#160;country varchar</text>
<polygon fill="#404040" stroke="transparent" points="33,-324 33,-342 246,-342 246,-324 33,-324"></polygon>
<polygon fill="none" stroke="white" points="33,-324 33,-342 246,-342 246,-324 33,-324"></polygon>
<text text-anchor="start" x="36" y="-330" font-family="opensans" font-size="10.00" fill="white"> &#160;&#160;&#160;&#160;&#160;&#160;&#160;&#160;&#160;city varchar</text>
<polygon fill="#404040" stroke="transparent" points="33,-306 33,-324 246,-324 246,-306 33,-306"></polygon>
<polygon fill="none" stroke="white" points="33,-306 33,-324 246,-324 246,-306 33,-306"></polygon>
<text text-anchor="start" x="36" y="-312" font-family="opensans" font-size="10.00" fill="white"> &#160;&#160;&#160;&#160;&#160;&#160;&#160;&#160;&#160;state_province varchar</text>
<polygon fill="#404040" stroke="transparent" points="33,-288 33,-306 246,-306 246,-288 33,-288"></polygon>
<polygon fill="none" stroke="white" points="33,-288 33,-306 246,-306 246,-288 33,-288"></polygon>
<text text-anchor="start" x="36" y="-294" font-family="opensans" font-size="10.00" fill="white"> &#160;&#160;&#160;&#160;&#160;&#160;&#160;&#160;&#160;zip_code varchar</text>
<polygon fill="#404040" stroke="transparent" points="33,-270 33,-288 246,-288 246,-270 33,-270"></polygon>
<polygon fill="none" stroke="white" points="33,-270 33,-288 246,-288 246,-270 33,-270"></polygon>
<text text-anchor="start" x="36" y="-276" font-family="opensans" font-size="10.00" fill="white"> &#160;&#160;&#160;&#160;&#160;&#160;&#160;&#160;&#160;card_number varchar</text>
<polygon fill="#404040" stroke="transparent" points="33,-252 33,-270 246,-270 246,-252 33,-252"></polygon>
<polygon fill="none" stroke="white" points="33,-252 33,-270 246,-270 246,-252 33,-252"></polygon>
<text text-anchor="start" x="36" y="-258" font-family="opensans" font-size="10.00" fill="white"> &#160;&#160;&#160;&#160;&#160;&#160;&#160;&#160;&#160;email_verified_at datetime</text>
<polygon fill="#404040" stroke="transparent" points="33,-234 33,-252 246,-252 246,-234 33,-234"></polygon>
<polygon fill="none" stroke="white" points="33,-234 33,-252 246,-252 246,-234 33,-234"></polygon>
<text text-anchor="start" x="36" y="-240" font-family="opensans" font-size="10.00" fill="white"> &#160;&#160;&#160;&#160;&#160;&#160;&#160;&#160;&#160;password varchar not null</text>
<polygon fill="#404040" stroke="transparent" points="33,-216 33,-234 246,-234 246,-216 33,-216"></polygon>
<polygon fill="none" stroke="white" points="33,-216 33,-234 246,-234 246,-216 33,-216"></polygon>
<text text-anchor="start" x="36" y="-222" font-family="opensans" font-size="10.00" fill="white"> &#160;&#160;&#160;&#160;&#160;&#160;&#160;&#160;&#160;remember_token varchar</text>
<polygon fill="#404040" stroke="transparent" points="33,-198 33,-216 246,-216 246,-198 33,-198"></polygon>
<polygon fill="none" stroke="white" points="33,-198 33,-216 246,-216 246,-198 33,-198"></polygon>
<text text-anchor="start" x="36" y="-204" font-family="opensans" font-size="10.00" fill="white"> &#160;&#160;&#160;&#160;&#160;&#160;&#160;&#160;&#160;current_team_id integer</text>
<polygon fill="#404040" stroke="transparent" points="33,-180 33,-198 246,-198 246,-180 33,-180"></polygon>
<polygon fill="none" stroke="white" points="33,-180 33,-198 246,-198 246,-180 33,-180"></polygon>
<text text-anchor="start" x="36" y="-186" font-family="opensans" font-size="10.00" fill="white"> &#160;&#160;&#160;&#160;&#160;&#160;&#160;&#160;&#160;profile_photo_path varchar</text>
<polygon fill="#404040" stroke="transparent" points="33,-162 33,-180 246,-180 246,-162 33,-162"></polygon>
<polygon fill="none" stroke="white" points="33,-162 33,-180 246,-180 246,-162 33,-162"></polygon>
<text text-anchor="start" x="36" y="-168" font-family="opensans" font-size="10.00" fill="white"> &#160;&#160;&#160;&#160;&#160;&#160;&#160;&#160;&#160;created_at datetime</text>
<polygon fill="#404040" stroke="transparent" points="33,-144 33,-162 246,-162 246,-144 33,-144"></polygon>
<polygon fill="none" stroke="white" points="33,-144 33,-162 246,-162 246,-144 33,-144"></polygon>
<text text-anchor="start" x="36" y="-150" font-family="opensans" font-size="10.00" fill="white"> &#160;&#160;&#160;&#160;&#160;&#160;&#160;&#160;&#160;updated_at datetime</text>
<polygon fill="#404040" stroke="transparent" points="33,-126 33,-144 246,-144 246,-126 33,-126"></polygon>
<polygon fill="none" stroke="white" points="33,-126 33,-144 246,-144 246,-126 33,-126"></polygon>
<text text-anchor="start" x="36" y="-132" font-family="opensans" font-size="10.00" fill="white"> &#160;&#160;&#160;&#160;&#160;&#160;&#160;&#160;&#160;two_factor_secret text</text>
<polygon fill="#404040" stroke="transparent" points="33,-108 33,-126 246,-126 246,-108 33,-108"></polygon>
<polygon fill="none" stroke="white" points="33,-108 33,-126 246,-126 246,-108 33,-108"></polygon>
<text text-anchor="start" x="36" y="-114" font-family="opensans" font-size="10.00" fill="white"> &#160;&#160;&#160;&#160;&#160;&#160;&#160;&#160;&#160;two_factor_recovery_codes text</text>
<polygon fill="#404040" stroke="transparent" points="33,-90 33,-108 246,-108 246,-90 33,-90"></polygon>
<polygon fill="none" stroke="white" points="33,-90 33,-108 246,-108 246,-90 33,-90"></polygon>
<text text-anchor="start" x="36" y="-96" font-family="opensans" font-size="10.00" fill="white"> &#160;&#160;&#160;&#160;&#160;&#160;&#160;&#160;&#160;two_factor_confirmed_at datetime</text>
</g>
<!-- password_reset_tokens -->
<g id="node3" class="node" style="opacity: 1;">
<title>password_reset_tokens</title>
<polygon fill="#232d95" stroke="transparent" points="80,-594 80,-612 199,-612 199,-594 80,-594"></polygon>
<polygon fill="none" stroke="white" points="80,-594 80,-612 199,-612 199,-594 80,-594"></polygon>
<text text-anchor="start" x="83" y="-601" font-family="opensans" font-weight="bold" font-size="10.00" fill="white">"password_reset_tokens"</text>
<polygon fill="#404040" stroke="transparent" points="80,-576 80,-594 199,-594 199,-576 80,-576"></polygon>
<polygon fill="none" stroke="white" points="80,-576 80,-594 199,-594 199,-576 80,-576"></polygon>
<text text-anchor="start" x="83" y="-583" font-family="opensans" font-size="10.00" fill="#e2c044">PK </text>
<text text-anchor="start" x="98.28" y="-583" font-family="opensans" font-size="10.00"> | </text>
<text text-anchor="start" x="105.28" y="-583" font-family="opensans" font-size="10.00" fill="white"> email varchar not null</text>
<polygon fill="#404040" stroke="transparent" points="80,-558 80,-576 199,-576 199,-558 80,-558"></polygon>
<polygon fill="none" stroke="white" points="80,-558 80,-576 199,-576 199,-558 80,-558"></polygon>
<text text-anchor="start" x="82.98" y="-564" font-family="opensans" font-size="10.00" fill="white"> &#160;&#160;&#160;&#160;&#160;&#160;&#160;&#160;&#160;token varchar not null</text>
<polygon fill="#404040" stroke="transparent" points="80,-540 80,-558 199,-558 199,-540 80,-540"></polygon>
<polygon fill="none" stroke="white" points="80,-540 80,-558 199,-558 199,-540 80,-540"></polygon>
<text text-anchor="start" x="83" y="-546" font-family="opensans" font-size="10.00" fill="white"> &#160;&#160;&#160;&#160;&#160;&#160;&#160;&#160;&#160;created_at datetime</text>
</g>
<!-- failed_jobs -->
<g id="node4" class="node" style="opacity: 1;">
<title>failed_jobs</title>
<polygon fill="#232d95" stroke="transparent" points="0,-756 0,-774 278,-774 278,-756 0,-756"></polygon>
<polygon fill="none" stroke="white" points="0,-756 0,-774 278,-774 278,-756 0,-756"></polygon>
<text text-anchor="start" x="3" y="-763" font-family="opensans" font-weight="bold" font-size="10.00" fill="white">"failed_jobs"</text>
<polygon fill="#404040" stroke="transparent" points="0,-738 0,-756 278,-756 278,-738 0,-738"></polygon>
<polygon fill="none" stroke="white" points="0,-738 0,-756 278,-756 278,-738 0,-738"></polygon>
<text text-anchor="start" x="3" y="-744" font-family="opensans" font-size="10.00" fill="white"> &#160;&#160;&#160;&#160;&#160;&#160;&#160;&#160;&#160;id integer primary key autoincrement not null</text>
<polygon fill="#404040" stroke="transparent" points="0,-720 0,-738 278,-738 278,-720 0,-720"></polygon>
<polygon fill="none" stroke="white" points="0,-720 0,-738 278,-738 278,-720 0,-720"></polygon>
<text text-anchor="start" x="3" y="-726" font-family="opensans" font-size="10.00" fill="white"> &#160;&#160;&#160;&#160;&#160;&#160;&#160;&#160;&#160;uuid varchar not null</text>
<polygon fill="#404040" stroke="transparent" points="0,-702 0,-720 278,-720 278,-702 0,-702"></polygon>
<polygon fill="none" stroke="white" points="0,-702 0,-720 278,-720 278,-702 0,-702"></polygon>
<text text-anchor="start" x="3" y="-708" font-family="opensans" font-size="10.00" fill="white"> &#160;&#160;&#160;&#160;&#160;&#160;&#160;&#160;&#160;connection text not null</text>
<polygon fill="#404040" stroke="transparent" points="0,-684 0,-702 278,-702 278,-684 0,-684"></polygon>
<polygon fill="none" stroke="white" points="0,-684 0,-702 278,-702 278,-684 0,-684"></polygon>
<text text-anchor="start" x="3" y="-690" font-family="opensans" font-size="10.00" fill="white"> &#160;&#160;&#160;&#160;&#160;&#160;&#160;&#160;&#160;queue text not null</text>
<polygon fill="#404040" stroke="transparent" points="0,-666 0,-684 278,-684 278,-666 0,-666"></polygon>
<polygon fill="none" stroke="white" points="0,-666 0,-684 278,-684 278,-666 0,-666"></polygon>
<text text-anchor="start" x="3" y="-672" font-family="opensans" font-size="10.00" fill="white"> &#160;&#160;&#160;&#160;&#160;&#160;&#160;&#160;&#160;payload text not null</text>
<polygon fill="#404040" stroke="transparent" points="0,-648 0,-666 278,-666 278,-648 0,-648"></polygon>
<polygon fill="none" stroke="white" points="0,-648 0,-666 278,-666 278,-648 0,-648"></polygon>
<text text-anchor="start" x="3" y="-654" font-family="opensans" font-size="10.00" fill="white"> &#160;&#160;&#160;&#160;&#160;&#160;&#160;&#160;&#160;exception text not null</text>
<polygon fill="#404040" stroke="transparent" points="0,-630 0,-648 278,-648 278,-630 0,-630"></polygon>
<polygon fill="none" stroke="white" points="0,-630 0,-648 278,-648 278,-630 0,-630"></polygon>
<text text-anchor="start" x="2.77" y="-636" font-family="opensans" font-size="10.00" fill="white"> &#160;&#160;&#160;&#160;&#160;&#160;&#160;&#160;&#160;failed_at datetime not null default CURRENT_TIMESTAMP</text>
</g>
<!-- personal_access_tokens -->
<g id="node5" class="node" style="opacity: 1;">
<title>personal_access_tokens</title>
<polygon fill="#232d95" stroke="transparent" points="33,-972 33,-990 246,-990 246,-972 33,-972"></polygon>
<polygon fill="none" stroke="white" points="33,-972 33,-990 246,-990 246,-972 33,-972"></polygon>
<text text-anchor="start" x="36" y="-979" font-family="opensans" font-weight="bold" font-size="10.00" fill="white">"personal_access_tokens"</text>
<polygon fill="#404040" stroke="transparent" points="33,-954 33,-972 246,-972 246,-954 33,-954"></polygon>
<polygon fill="none" stroke="white" points="33,-954 33,-972 246,-972 246,-954 33,-954"></polygon>
<text text-anchor="start" x="35.91" y="-960" font-family="opensans" font-size="10.00" fill="white"> &#160;&#160;&#160;&#160;&#160;&#160;&#160;&#160;&#160;id integer primary key autoincrement not null</text>
<polygon fill="#404040" stroke="transparent" points="33,-936 33,-954 246,-954 246,-936 33,-936"></polygon>
<polygon fill="none" stroke="white" points="33,-936 33,-954 246,-954 246,-936 33,-936"></polygon>
<text text-anchor="start" x="36" y="-942" font-family="opensans" font-size="10.00" fill="white"> &#160;&#160;&#160;&#160;&#160;&#160;&#160;&#160;&#160;tokenable_type varchar not null</text>
<polygon fill="#404040" stroke="transparent" points="33,-918 33,-936 246,-936 246,-918 33,-918"></polygon>
<polygon fill="none" stroke="white" points="33,-918 33,-936 246,-936 246,-918 33,-918"></polygon>
<text text-anchor="start" x="36" y="-924" font-family="opensans" font-size="10.00" fill="white"> &#160;&#160;&#160;&#160;&#160;&#160;&#160;&#160;&#160;tokenable_id integer not null</text>
<polygon fill="#404040" stroke="transparent" points="33,-900 33,-918 246,-918 246,-900 33,-900"></polygon>
<polygon fill="none" stroke="white" points="33,-900 33,-918 246,-918 246,-900 33,-900"></polygon>
<text text-anchor="start" x="36" y="-906" font-family="opensans" font-size="10.00" fill="white"> &#160;&#160;&#160;&#160;&#160;&#160;&#160;&#160;&#160;name varchar not null</text>
<polygon fill="#404040" stroke="transparent" points="33,-882 33,-900 246,-900 246,-882 33,-882"></polygon>
<polygon fill="none" stroke="white" points="33,-882 33,-900 246,-900 246,-882 33,-882"></polygon>
<text text-anchor="start" x="36" y="-888" font-family="opensans" font-size="10.00" fill="white"> &#160;&#160;&#160;&#160;&#160;&#160;&#160;&#160;&#160;token varchar not null</text>
<polygon fill="#404040" stroke="transparent" points="33,-864 33,-882 246,-882 246,-864 33,-864"></polygon>
<polygon fill="none" stroke="white" points="33,-864 33,-882 246,-882 246,-864 33,-864"></polygon>
<text text-anchor="start" x="36" y="-870" font-family="opensans" font-size="10.00" fill="white"> &#160;&#160;&#160;&#160;&#160;&#160;&#160;&#160;&#160;abilities text</text>
<polygon fill="#404040" stroke="transparent" points="33,-846 33,-864 246,-864 246,-846 33,-846"></polygon>
<polygon fill="none" stroke="white" points="33,-846 33,-864 246,-864 246,-846 33,-846"></polygon>
<text text-anchor="start" x="36" y="-852" font-family="opensans" font-size="10.00" fill="white"> &#160;&#160;&#160;&#160;&#160;&#160;&#160;&#160;&#160;last_used_at datetime</text>
<polygon fill="#404040" stroke="transparent" points="33,-828 33,-846 246,-846 246,-828 33,-828"></polygon>
<polygon fill="none" stroke="white" points="33,-828 33,-846 246,-846 246,-828 33,-828"></polygon>
<text text-anchor="start" x="36" y="-834" font-family="opensans" font-size="10.00" fill="white"> &#160;&#160;&#160;&#160;&#160;&#160;&#160;&#160;&#160;expires_at datetime</text>
<polygon fill="#404040" stroke="transparent" points="33,-810 33,-828 246,-828 246,-810 33,-810"></polygon>
<polygon fill="none" stroke="white" points="33,-810 33,-828 246,-828 246,-810 33,-810"></polygon>
<text text-anchor="start" x="36" y="-816" font-family="opensans" font-size="10.00" fill="white"> &#160;&#160;&#160;&#160;&#160;&#160;&#160;&#160;&#160;created_at datetime</text>
<polygon fill="#404040" stroke="transparent" points="33,-792 33,-810 246,-810 246,-792 33,-792"></polygon>
<polygon fill="none" stroke="white" points="33,-792 33,-810 246,-810 246,-792 33,-792"></polygon>
<text text-anchor="start" x="36" y="-798" font-family="opensans" font-size="10.00" fill="white"> &#160;&#160;&#160;&#160;&#160;&#160;&#160;&#160;&#160;updated_at datetime</text>
</g>
<!-- sessions -->
<g id="node6" class="node" style="opacity: 1;">
<title>sessions</title>
<polygon fill="#232d95" stroke="transparent" points="68,-1116 68,-1134 211,-1134 211,-1116 68,-1116"></polygon>
<polygon fill="none" stroke="white" points="68,-1116 68,-1134 211,-1134 211,-1116 68,-1116"></polygon>
<text text-anchor="start" x="71" y="-1123" font-family="opensans" font-weight="bold" font-size="10.00" fill="white">"sessions"</text>
<polygon fill="#404040" stroke="transparent" points="68,-1098 68,-1116 211,-1116 211,-1098 68,-1098"></polygon>
<polygon fill="none" stroke="white" points="68,-1098 68,-1116 211,-1116 211,-1098 68,-1098"></polygon>
<text text-anchor="start" x="71" y="-1105" font-family="opensans" font-size="10.00" fill="#e2c044">PK </text>
<text text-anchor="start" x="86.28" y="-1105" font-family="opensans" font-size="10.00"> | </text>
<text text-anchor="start" x="93.28" y="-1105" font-family="opensans" font-size="10.00" fill="white"> id varchar not null</text>
<polygon fill="#404040" stroke="transparent" points="68,-1080 68,-1098 211,-1098 211,-1080 68,-1080"></polygon>
<polygon fill="none" stroke="white" points="68,-1080 68,-1098 211,-1098 211,-1080 68,-1080"></polygon>
<text text-anchor="start" x="71" y="-1086" font-family="opensans" font-size="10.00" fill="white"> &#160;&#160;&#160;&#160;&#160;&#160;&#160;&#160;&#160;user_id integer</text>
<polygon fill="#404040" stroke="transparent" points="68,-1062 68,-1080 211,-1080 211,-1062 68,-1062"></polygon>
<polygon fill="none" stroke="white" points="68,-1062 68,-1080 211,-1080 211,-1062 68,-1062"></polygon>
<text text-anchor="start" x="71" y="-1068" font-family="opensans" font-size="10.00" fill="white"> &#160;&#160;&#160;&#160;&#160;&#160;&#160;&#160;&#160;ip_address varchar</text>
<polygon fill="#404040" stroke="transparent" points="68,-1044 68,-1062 211,-1062 211,-1044 68,-1044"></polygon>
<polygon fill="none" stroke="white" points="68,-1044 68,-1062 211,-1062 211,-1044 68,-1044"></polygon>
<text text-anchor="start" x="71" y="-1050" font-family="opensans" font-size="10.00" fill="white"> &#160;&#160;&#160;&#160;&#160;&#160;&#160;&#160;&#160;user_agent text</text>
<polygon fill="#404040" stroke="transparent" points="68,-1026 68,-1044 211,-1044 211,-1026 68,-1026"></polygon>
<polygon fill="none" stroke="white" points="68,-1026 68,-1044 211,-1044 211,-1026 68,-1026"></polygon>
<text text-anchor="start" x="71" y="-1032" font-family="opensans" font-size="10.00" fill="white"> &#160;&#160;&#160;&#160;&#160;&#160;&#160;&#160;&#160;payload text not null</text>
<polygon fill="#404040" stroke="transparent" points="68,-1008 68,-1026 211,-1026 211,-1008 68,-1008"></polygon>
<polygon fill="none" stroke="white" points="68,-1008 68,-1026 211,-1026 211,-1008 68,-1008"></polygon>
<text text-anchor="start" x="70.76" y="-1014" font-family="opensans" font-size="10.00" fill="white"> &#160;&#160;&#160;&#160;&#160;&#160;&#160;&#160;&#160;last_activity integer not null</text>
</g>
<!-- categories -->
<g id="node7" class="node" style="opacity: 1;">
<title>categories</title>
<polygon fill="#232d95" stroke="transparent" points="33,-1242 33,-1260 246,-1260 246,-1242 33,-1242"></polygon>
<polygon fill="none" stroke="white" points="33,-1242 33,-1260 246,-1260 246,-1242 33,-1242"></polygon>
<text text-anchor="start" x="36" y="-1249" font-family="opensans" font-weight="bold" font-size="10.00" fill="white">"categories"</text>
<polygon fill="#404040" stroke="transparent" points="33,-1224 33,-1242 246,-1242 246,-1224 33,-1224"></polygon>
<polygon fill="none" stroke="white" points="33,-1224 33,-1242 246,-1242 246,-1224 33,-1224"></polygon>
<text text-anchor="start" x="35.91" y="-1230" font-family="opensans" font-size="10.00" fill="white"> &#160;&#160;&#160;&#160;&#160;&#160;&#160;&#160;&#160;id integer primary key autoincrement not null</text>
<polygon fill="#404040" stroke="transparent" points="33,-1206 33,-1224 246,-1224 246,-1206 33,-1206"></polygon>
<polygon fill="none" stroke="white" points="33,-1206 33,-1224 246,-1224 246,-1206 33,-1206"></polygon>
<text text-anchor="start" x="36" y="-1212" font-family="opensans" font-size="10.00" fill="white"> &#160;&#160;&#160;&#160;&#160;&#160;&#160;&#160;&#160;name varchar not null</text>
<polygon fill="#404040" stroke="transparent" points="33,-1188 33,-1206 246,-1206 246,-1188 33,-1188"></polygon>
<polygon fill="none" stroke="white" points="33,-1188 33,-1206 246,-1206 246,-1188 33,-1188"></polygon>
<text text-anchor="start" x="36" y="-1194" font-family="opensans" font-size="10.00" fill="white"> &#160;&#160;&#160;&#160;&#160;&#160;&#160;&#160;&#160;description text</text>
<polygon fill="#404040" stroke="transparent" points="33,-1170 33,-1188 246,-1188 246,-1170 33,-1170"></polygon>
<polygon fill="none" stroke="white" points="33,-1170 33,-1188 246,-1188 246,-1170 33,-1170"></polygon>
<text text-anchor="start" x="36" y="-1176" font-family="opensans" font-size="10.00" fill="white"> &#160;&#160;&#160;&#160;&#160;&#160;&#160;&#160;&#160;created_at datetime</text>
<polygon fill="#404040" stroke="transparent" points="33,-1152 33,-1170 246,-1170 246,-1152 33,-1152"></polygon>
<polygon fill="none" stroke="white" points="33,-1152 33,-1170 246,-1170 246,-1152 33,-1152"></polygon>
<text text-anchor="start" x="36" y="-1158" font-family="opensans" font-size="10.00" fill="white"> &#160;&#160;&#160;&#160;&#160;&#160;&#160;&#160;&#160;updated_at datetime</text>
</g>
<!-- reviews -->
<g id="node8" class="node" style="opacity: 1;">
<title>reviews</title>
<polygon fill="#232d95" stroke="transparent" points="33,-1332 33,-1350 246,-1350 246,-1332 33,-1332"></polygon>
<polygon fill="none" stroke="white" points="33,-1332 33,-1350 246,-1350 246,-1332 33,-1332"></polygon>
<text text-anchor="start" x="36" y="-1339" font-family="opensans" font-weight="bold" font-size="10.00" fill="white">"reviews"</text>
<polygon fill="#404040" stroke="transparent" points="33,-1314 33,-1332 246,-1332 246,-1314 33,-1314"></polygon>
<polygon fill="none" stroke="white" points="33,-1314 33,-1332 246,-1332 246,-1314 33,-1314"></polygon>
<text text-anchor="start" x="35.91" y="-1320" font-family="opensans" font-size="10.00" fill="white"> &#160;&#160;&#160;&#160;&#160;&#160;&#160;&#160;&#160;id integer primary key autoincrement not null</text>
<polygon fill="#404040" stroke="transparent" points="33,-1296 33,-1314 246,-1314 246,-1296 33,-1296"></polygon>
<polygon fill="none" stroke="white" points="33,-1296 33,-1314 246,-1314 246,-1296 33,-1296"></polygon>
<text text-anchor="start" x="36" y="-1302" font-family="opensans" font-size="10.00" fill="white"> &#160;&#160;&#160;&#160;&#160;&#160;&#160;&#160;&#160;created_at datetime</text>
<polygon fill="#404040" stroke="transparent" points="33,-1278 33,-1296 246,-1296 246,-1278 33,-1278"></polygon>
<polygon fill="none" stroke="white" points="33,-1278 33,-1296 246,-1296 246,-1278 33,-1278"></polygon>
<text text-anchor="start" x="36" y="-1284" font-family="opensans" font-size="10.00" fill="white"> &#160;&#160;&#160;&#160;&#160;&#160;&#160;&#160;&#160;updated_at datetime</text>
</g>
<!-- reservations -->
<g id="node9" class="node" style="opacity: 1;">
<title>reservations</title>
<polygon fill="#232d95" stroke="transparent" points="33,-1422 33,-1440 246,-1440 246,-1422 33,-1422"></polygon>
<polygon fill="none" stroke="white" points="33,-1422 33,-1440 246,-1440 246,-1422 33,-1422"></polygon>
<text text-anchor="start" x="36" y="-1429" font-family="opensans" font-weight="bold" font-size="10.00" fill="white">"reservations"</text>
<polygon fill="#404040" stroke="transparent" points="33,-1404 33,-1422 246,-1422 246,-1404 33,-1404"></polygon>
<polygon fill="none" stroke="white" points="33,-1404 33,-1422 246,-1422 246,-1404 33,-1404"></polygon>
<text text-anchor="start" x="35.91" y="-1410" font-family="opensans" font-size="10.00" fill="white"> &#160;&#160;&#160;&#160;&#160;&#160;&#160;&#160;&#160;id integer primary key autoincrement not null</text>
<polygon fill="#404040" stroke="transparent" points="33,-1386 33,-1404 246,-1404 246,-1386 33,-1386"></polygon>
<polygon fill="none" stroke="white" points="33,-1386 33,-1404 246,-1404 246,-1386 33,-1386"></polygon>
<text text-anchor="start" x="36" y="-1392" font-family="opensans" font-size="10.00" fill="white"> &#160;&#160;&#160;&#160;&#160;&#160;&#160;&#160;&#160;created_at datetime</text>
<polygon fill="#404040" stroke="transparent" points="33,-1368 33,-1386 246,-1386 246,-1368 33,-1368"></polygon>
<polygon fill="none" stroke="white" points="33,-1368 33,-1386 246,-1386 246,-1368 33,-1368"></polygon>
<text text-anchor="start" x="36" y="-1374" font-family="opensans" font-size="10.00" fill="white"> &#160;&#160;&#160;&#160;&#160;&#160;&#160;&#160;&#160;updated_at datetime</text>
</g>
<!-- media -->
<g id="node10" class="node" style="opacity: 1;">
<title>media</title>
<polygon fill="#232d95" stroke="transparent" points="33,-1782 33,-1800 246,-1800 246,-1782 33,-1782"></polygon>
<polygon fill="none" stroke="white" points="33,-1782 33,-1800 246,-1800 246,-1782 33,-1782"></polygon>
<text text-anchor="start" x="36" y="-1789" font-family="opensans" font-weight="bold" font-size="10.00" fill="white">"media"</text>
<polygon fill="#404040" stroke="transparent" points="33,-1764 33,-1782 246,-1782 246,-1764 33,-1764"></polygon>
<polygon fill="none" stroke="white" points="33,-1764 33,-1782 246,-1782 246,-1764 33,-1764"></polygon>
<text text-anchor="start" x="35.91" y="-1770" font-family="opensans" font-size="10.00" fill="white"> &#160;&#160;&#160;&#160;&#160;&#160;&#160;&#160;&#160;id integer primary key autoincrement not null</text>
<polygon fill="#404040" stroke="transparent" points="33,-1746 33,-1764 246,-1764 246,-1746 33,-1746"></polygon>
<polygon fill="none" stroke="white" points="33,-1746 33,-1764 246,-1764 246,-1746 33,-1746"></polygon>
<text text-anchor="start" x="36" y="-1752" font-family="opensans" font-size="10.00" fill="white"> &#160;&#160;&#160;&#160;&#160;&#160;&#160;&#160;&#160;model_type varchar not null</text>
<polygon fill="#404040" stroke="transparent" points="33,-1728 33,-1746 246,-1746 246,-1728 33,-1728"></polygon>
<polygon fill="none" stroke="white" points="33,-1728 33,-1746 246,-1746 246,-1728 33,-1728"></polygon>
<text text-anchor="start" x="36" y="-1734" font-family="opensans" font-size="10.00" fill="white"> &#160;&#160;&#160;&#160;&#160;&#160;&#160;&#160;&#160;model_id integer not null</text>
<polygon fill="#404040" stroke="transparent" points="33,-1710 33,-1728 246,-1728 246,-1710 33,-1710"></polygon>
<polygon fill="none" stroke="white" points="33,-1710 33,-1728 246,-1728 246,-1710 33,-1710"></polygon>
<text text-anchor="start" x="36" y="-1716" font-family="opensans" font-size="10.00" fill="white"> &#160;&#160;&#160;&#160;&#160;&#160;&#160;&#160;&#160;uuid varchar</text>
<polygon fill="#404040" stroke="transparent" points="33,-1692 33,-1710 246,-1710 246,-1692 33,-1692"></polygon>
<polygon fill="none" stroke="white" points="33,-1692 33,-1710 246,-1710 246,-1692 33,-1692"></polygon>
<text text-anchor="start" x="36" y="-1698" font-family="opensans" font-size="10.00" fill="white"> &#160;&#160;&#160;&#160;&#160;&#160;&#160;&#160;&#160;collection_name varchar not null</text>
<polygon fill="#404040" stroke="transparent" points="33,-1674 33,-1692 246,-1692 246,-1674 33,-1674"></polygon>
<polygon fill="none" stroke="white" points="33,-1674 33,-1692 246,-1692 246,-1674 33,-1674"></polygon>
<text text-anchor="start" x="36" y="-1680" font-family="opensans" font-size="10.00" fill="white"> &#160;&#160;&#160;&#160;&#160;&#160;&#160;&#160;&#160;name varchar not null</text>
<polygon fill="#404040" stroke="transparent" points="33,-1656 33,-1674 246,-1674 246,-1656 33,-1656"></polygon>
<polygon fill="none" stroke="white" points="33,-1656 33,-1674 246,-1674 246,-1656 33,-1656"></polygon>
<text text-anchor="start" x="36" y="-1662" font-family="opensans" font-size="10.00" fill="white"> &#160;&#160;&#160;&#160;&#160;&#160;&#160;&#160;&#160;file_name varchar not null</text>
<polygon fill="#404040" stroke="transparent" points="33,-1638 33,-1656 246,-1656 246,-1638 33,-1638"></polygon>
<polygon fill="none" stroke="white" points="33,-1638 33,-1656 246,-1656 246,-1638 33,-1638"></polygon>
<text text-anchor="start" x="36" y="-1644" font-family="opensans" font-size="10.00" fill="white"> &#160;&#160;&#160;&#160;&#160;&#160;&#160;&#160;&#160;mime_type varchar</text>
<polygon fill="#404040" stroke="transparent" points="33,-1620 33,-1638 246,-1638 246,-1620 33,-1620"></polygon>
<polygon fill="none" stroke="white" points="33,-1620 33,-1638 246,-1638 246,-1620 33,-1620"></polygon>
<text text-anchor="start" x="36" y="-1626" font-family="opensans" font-size="10.00" fill="white"> &#160;&#160;&#160;&#160;&#160;&#160;&#160;&#160;&#160;disk varchar not null</text>
<polygon fill="#404040" stroke="transparent" points="33,-1602 33,-1620 246,-1620 246,-1602 33,-1602"></polygon>
<polygon fill="none" stroke="white" points="33,-1602 33,-1620 246,-1620 246,-1602 33,-1602"></polygon>
<text text-anchor="start" x="36" y="-1608" font-family="opensans" font-size="10.00" fill="white"> &#160;&#160;&#160;&#160;&#160;&#160;&#160;&#160;&#160;conversions_disk varchar</text>
<polygon fill="#404040" stroke="transparent" points="33,-1584 33,-1602 246,-1602 246,-1584 33,-1584"></polygon>
<polygon fill="none" stroke="white" points="33,-1584 33,-1602 246,-1602 246,-1584 33,-1584"></polygon>
<text text-anchor="start" x="36" y="-1590" font-family="opensans" font-size="10.00" fill="white"> &#160;&#160;&#160;&#160;&#160;&#160;&#160;&#160;&#160;size integer not null</text>
<polygon fill="#404040" stroke="transparent" points="33,-1566 33,-1584 246,-1584 246,-1566 33,-1566"></polygon>
<polygon fill="none" stroke="white" points="33,-1566 33,-1584 246,-1584 246,-1566 33,-1566"></polygon>
<text text-anchor="start" x="36" y="-1572" font-family="opensans" font-size="10.00" fill="white"> &#160;&#160;&#160;&#160;&#160;&#160;&#160;&#160;&#160;manipulations text not null</text>
<polygon fill="#404040" stroke="transparent" points="33,-1548 33,-1566 246,-1566 246,-1548 33,-1548"></polygon>
<polygon fill="none" stroke="white" points="33,-1548 33,-1566 246,-1566 246,-1548 33,-1548"></polygon>
<text text-anchor="start" x="36" y="-1554" font-family="opensans" font-size="10.00" fill="white"> &#160;&#160;&#160;&#160;&#160;&#160;&#160;&#160;&#160;custom_properties text not null</text>
<polygon fill="#404040" stroke="transparent" points="33,-1530 33,-1548 246,-1548 246,-1530 33,-1530"></polygon>
<polygon fill="none" stroke="white" points="33,-1530 33,-1548 246,-1548 246,-1530 33,-1530"></polygon>
<text text-anchor="start" x="36" y="-1536" font-family="opensans" font-size="10.00" fill="white"> &#160;&#160;&#160;&#160;&#160;&#160;&#160;&#160;&#160;generated_conversions text not null</text>
<polygon fill="#404040" stroke="transparent" points="33,-1512 33,-1530 246,-1530 246,-1512 33,-1512"></polygon>
<polygon fill="none" stroke="white" points="33,-1512 33,-1530 246,-1530 246,-1512 33,-1512"></polygon>
<text text-anchor="start" x="36" y="-1518" font-family="opensans" font-size="10.00" fill="white"> &#160;&#160;&#160;&#160;&#160;&#160;&#160;&#160;&#160;responsive_images text not null</text>
<polygon fill="#404040" stroke="transparent" points="33,-1494 33,-1512 246,-1512 246,-1494 33,-1494"></polygon>
<polygon fill="none" stroke="white" points="33,-1494 33,-1512 246,-1512 246,-1494 33,-1494"></polygon>
<text text-anchor="start" x="36" y="-1500" font-family="opensans" font-size="10.00" fill="white"> &#160;&#160;&#160;&#160;&#160;&#160;&#160;&#160;&#160;order_column integer</text>
<polygon fill="#404040" stroke="transparent" points="33,-1476 33,-1494 246,-1494 246,-1476 33,-1476"></polygon>
<polygon fill="none" stroke="white" points="33,-1476 33,-1494 246,-1494 246,-1476 33,-1476"></polygon>
<text text-anchor="start" x="36" y="-1482" font-family="opensans" font-size="10.00" fill="white"> &#160;&#160;&#160;&#160;&#160;&#160;&#160;&#160;&#160;created_at datetime</text>
<polygon fill="#404040" stroke="transparent" points="33,-1458 33,-1476 246,-1476 246,-1458 33,-1458"></polygon>
<polygon fill="none" stroke="white" points="33,-1458 33,-1476 246,-1476 246,-1458 33,-1458"></polygon>
<text text-anchor="start" x="36" y="-1464" font-family="opensans" font-size="10.00" fill="white"> &#160;&#160;&#160;&#160;&#160;&#160;&#160;&#160;&#160;updated_at datetime</text>
</g>
</g>
</svg>